<svg width="684.507" height="101.172" viewBox="0 0 684.507 101.172" xmlns="http://www.w3.org/2000/svg"><g id="svgGroup" stroke-linecap="round" fill-rule="evenodd" font-size="9pt" stroke="#ff6767" stroke-width="0.25mm" fill="#ff6767" style="stroke:#ff6767;stroke-width:0.25mm;fill:#ff6767"><path d="M 430.436 77.394 A 56.663 56.663 0 0 0 434.619 77.539 A 41.726 41.726 0 0 0 440.036 77.199 A 32.331 32.331 0 0 0 448.071 75.122 Q 454.004 72.705 457.446 67.773 Q 460.889 62.842 460.889 55.371 Q 460.889 49.365 458.716 45.703 A 15.588 15.588 0 0 0 456.446 42.751 A 18.146 18.146 0 0 0 452.442 39.697 A 42.423 42.423 0 0 0 451.558 39.207 Q 449.606 38.152 447.317 37.169 A 73.342 73.342 0 0 0 442.627 35.352 Q 437.714 33.597 434.692 32.107 A 27.112 27.112 0 0 1 432.617 30.981 A 8.184 8.184 0 0 1 431.519 30.189 A 5.749 5.749 0 0 1 429.443 25.635 Q 429.443 22.754 431.592 20.435 Q 433.17 18.731 436.354 18.279 A 17.922 17.922 0 0 1 438.867 18.115 A 20.539 20.539 0 0 1 439.517 18.125 Q 441.516 18.189 442.865 18.651 A 5.145 5.145 0 0 1 444.263 19.36 A 29.218 29.218 0 0 1 444.58 19.598 Q 445.524 20.316 446.152 20.922 A 8.211 8.211 0 0 1 446.729 21.533 Q 447.266 22.07 447.608 22.314 Q 447.867 22.499 448.518 22.684 A 11.046 11.046 0 0 0 448.975 22.803 A 12.879 12.879 0 0 0 449.181 22.848 Q 451.462 23.325 455.309 23.304 A 65.193 65.193 0 0 0 456.299 23.291 Q 456.78 23.291 457.092 23.186 A 1.065 1.065 0 0 0 457.373 23.047 A 0.896 0.896 0 0 0 457.395 23.03 Q 457.768 22.732 457.91 21.973 A 60.074 60.074 0 0 0 457.948 21.664 Q 458.077 20.589 458.153 19.62 A 35.754 35.754 0 0 0 458.252 17.773 A 34.468 34.468 0 0 0 458.264 16.867 Q 458.264 16.328 458.246 15.82 A 23.384 23.384 0 0 0 458.154 14.404 Q 458.122 14.052 458.059 13.794 A 2.049 2.049 0 0 0 457.983 13.55 A 2.518 2.518 0 0 0 457.907 13.374 Q 457.812 13.175 457.649 12.895 A 14.36 14.36 0 0 0 457.471 12.598 Q 456.995 11.792 455.667 10.616 A 27.817 27.817 0 0 0 454.688 9.79 Q 452.539 8.057 448.657 6.665 A 19.46 19.46 0 0 0 446.614 6.062 Q 443.315 5.273 438.867 5.273 A 43.138 43.138 0 0 0 432.505 5.722 A 31.896 31.896 0 0 0 425.342 7.617 Q 419.483 9.961 416.162 14.551 A 16.907 16.907 0 0 0 413.411 20.701 A 23.239 23.239 0 0 0 412.842 25.977 A 30.796 30.796 0 0 0 412.896 27.83 Q 413.06 30.539 413.713 32.816 A 15.4 15.4 0 0 0 416.943 38.867 Q 421.045 43.506 430.322 46.631 A 101.162 101.162 0 0 1 431.384 46.988 Q 434.554 48.075 436.82 49.101 A 29.296 29.296 0 0 1 438.965 50.171 Q 440.963 51.283 442.143 52.395 A 7.044 7.044 0 0 1 443.14 53.54 A 7.58 7.58 0 0 1 443.287 53.765 A 6.204 6.204 0 0 1 444.287 57.129 A 9.418 9.418 0 0 1 444.227 58.211 A 6.536 6.536 0 0 1 441.846 62.695 Q 439.404 64.697 434.619 64.697 A 29.677 29.677 0 0 1 433.97 64.69 Q 429.48 64.592 427.246 63.11 Q 424.854 61.523 423.877 60.498 Q 422.998 59.57 422.363 59.18 A 2.234 2.234 0 0 0 422.02 59.008 Q 421.471 58.789 420.703 58.789 Q 419.971 58.789 418.511 58.94 A 72.739 72.739 0 0 0 417.456 59.058 A 50.084 50.084 0 0 0 416.058 59.242 Q 415.405 59.338 414.844 59.442 A 20.553 20.553 0 0 0 413.77 59.668 Q 413.294 59.787 412.981 59.979 A 1.434 1.434 0 0 0 412.647 60.254 A 0.912 0.912 0 0 0 412.537 60.416 Q 412.404 60.662 412.344 61.069 A 4.502 4.502 0 0 0 412.305 61.475 Q 412.158 63.574 412.354 65.161 A 67.681 67.681 0 0 0 412.362 65.23 Q 412.492 66.278 412.622 67.055 A 21.663 21.663 0 0 0 412.744 67.725 A 4.844 4.844 0 0 0 412.818 68.038 A 4.112 4.112 0 0 0 413.233 69.043 Q 413.574 69.629 414.014 70.264 A 11.501 11.501 0 0 0 414.695 71.043 Q 415.91 72.319 417.798 73.608 A 14.671 14.671 0 0 0 419.043 74.368 Q 420.155 74.975 421.513 75.496 A 30.52 30.52 0 0 0 424.341 76.416 A 25.818 25.818 0 0 0 426.793 76.957 Q 428.477 77.249 430.436 77.394 Z M 23.682 18.457 L 21.338 18.457 A 11.898 11.898 0 0 0 19.855 18.542 Q 18.25 18.745 17.364 19.427 A 2.808 2.808 0 0 0 16.943 19.824 A 3.887 3.887 0 0 0 16.278 20.991 Q 15.772 22.33 15.772 24.512 L 15.772 73.779 A 5.508 5.508 0 0 1 15.731 74.475 Q 15.635 75.226 15.312 75.641 A 1.343 1.343 0 0 1 15.161 75.806 Q 14.604 76.318 13.336 76.363 A 7.074 7.074 0 0 1 13.086 76.367 L 2.686 76.367 A 6.023 6.023 0 0 1 1.968 76.328 Q 1.059 76.218 0.61 75.806 A 1.556 1.556 0 0 1 0.239 75.257 Q 0.033 74.772 0.005 74.023 A 6.493 6.493 0 0 1 0 73.779 L 0 19.434 A 43.193 43.193 0 0 1 0.088 16.58 Q 0.276 13.756 0.862 11.827 A 12.429 12.429 0 0 1 0.903 11.694 A 6.944 6.944 0 0 1 2.207 9.273 A 6.531 6.531 0 0 1 4.419 7.593 A 10.31 10.31 0 0 1 6.394 6.91 Q 8.36 6.427 11.132 6.359 A 37.928 37.928 0 0 1 12.061 6.348 L 23.682 6.348 A 57.237 57.237 0 0 1 30.989 6.782 Q 39.364 7.863 44.175 11.634 A 17.195 17.195 0 0 1 44.434 11.841 A 17.397 17.397 0 0 1 50.185 20.844 Q 51.172 24.326 51.172 28.662 A 33.428 33.428 0 0 1 50.695 34.48 Q 49.872 39.13 47.632 42.529 A 21.319 21.319 0 0 1 38.452 50.439 A 28.75 28.75 0 0 1 26.514 52.979 A 4.218 4.218 0 0 1 25.478 52.857 A 3.234 3.234 0 0 1 24.365 52.344 A 13.064 13.064 0 0 1 23.687 51.844 Q 23.344 51.575 22.964 51.248 A 30.589 30.589 0 0 1 22.168 50.537 A 36.577 36.577 0 0 1 21.175 49.583 Q 20.636 49.046 20.052 48.428 A 66.92 66.92 0 0 1 19.336 47.656 A 3.671 3.671 0 0 1 19.054 47.286 Q 18.78 46.868 18.753 46.512 A 1.016 1.016 0 0 1 18.75 46.436 A 1.217 1.217 0 0 1 18.832 46.012 Q 18.97 45.642 19.336 45.215 A 42.95 42.95 0 0 1 21.354 43.078 Q 22.345 42.103 23.271 41.348 A 17.891 17.891 0 0 1 24.854 40.186 Q 25.44 39.795 26.514 39.795 A 7.691 7.691 0 0 0 32.099 37.458 A 9.955 9.955 0 0 0 32.251 37.305 A 7.177 7.177 0 0 0 33.798 34.779 Q 34.574 32.702 34.574 29.676 A 24.385 24.385 0 0 0 34.57 29.248 A 19.643 19.643 0 0 0 34.343 26.312 Q 34.102 24.807 33.607 23.623 A 7.019 7.019 0 0 0 31.616 20.85 Q 29.054 18.74 24.841 18.49 A 19.626 19.626 0 0 0 23.682 18.457 Z M 177.637 45.264 L 177.637 73.779 A 5.508 5.508 0 0 1 177.596 74.475 Q 177.5 75.226 177.177 75.641 A 1.343 1.343 0 0 1 177.026 75.806 Q 176.47 76.318 175.201 76.363 A 7.074 7.074 0 0 1 174.951 76.367 L 164.893 76.367 A 6.023 6.023 0 0 1 164.175 76.328 Q 163.266 76.218 162.817 75.806 A 1.556 1.556 0 0 1 162.446 75.257 Q 162.24 74.772 162.212 74.023 A 6.493 6.493 0 0 1 162.207 73.779 L 162.207 47.803 A 20.007 20.007 0 0 0 162.029 45.037 Q 161.575 41.794 159.961 40.039 A 7.415 7.415 0 0 0 155.523 37.723 A 10.641 10.641 0 0 0 153.858 37.598 A 14.433 14.433 0 0 0 151.621 37.76 Q 150.433 37.946 149.476 38.348 A 6.482 6.482 0 0 0 147.925 39.258 A 10.959 10.959 0 0 0 144.727 43.457 L 144.727 73.779 A 5.508 5.508 0 0 1 144.686 74.475 Q 144.59 75.226 144.267 75.641 A 1.343 1.343 0 0 1 144.116 75.806 Q 143.559 76.318 142.291 76.363 A 7.074 7.074 0 0 1 142.041 76.367 L 131.983 76.367 A 6.023 6.023 0 0 1 131.265 76.328 Q 130.356 76.218 129.907 75.806 A 1.556 1.556 0 0 1 129.535 75.257 Q 129.33 74.772 129.301 74.023 A 6.493 6.493 0 0 1 129.297 73.779 L 129.297 32.861 A 4.535 4.535 0 0 1 129.345 32.181 Q 129.399 31.825 129.514 31.537 A 2.012 2.012 0 0 1 129.785 31.055 A 22.246 22.246 0 0 1 131.07 29.501 A 28.593 28.593 0 0 1 132.251 28.271 A 30.622 30.622 0 0 1 133.638 26.995 Q 134.367 26.362 135.214 25.693 A 54.005 54.005 0 0 1 135.791 25.244 A 2.906 2.906 0 0 1 136.217 24.969 Q 136.469 24.837 136.713 24.787 A 1.479 1.479 0 0 1 137.012 24.756 Q 137.396 24.756 137.854 25.005 A 3.671 3.671 0 0 1 138.233 25.244 Q 140.147 26.748 141.551 28.125 A 28.32 28.32 0 0 1 141.748 28.32 A 25.079 25.079 0 0 1 143.903 30.765 A 22.537 22.537 0 0 1 144.336 31.348 L 144.58 31.348 A 11.099 11.099 0 0 1 145.18 30.641 Q 145.929 29.823 147.07 28.833 A 10.762 10.762 0 0 1 148.572 27.756 Q 149.904 26.954 151.733 26.27 Q 154.736 25.146 159.424 25.146 Q 164.014 25.146 168.164 27.002 A 14.506 14.506 0 0 1 173.693 31.391 A 18.667 18.667 0 0 1 174.976 33.252 A 16.261 16.261 0 0 1 176.699 37.354 Q 177.226 39.259 177.457 41.524 A 36.928 36.928 0 0 1 177.637 45.264 Z M 605.078 72.266 L 604.883 72.266 L 604.883 93.066 A 4.535 4.535 0 0 1 604.835 93.746 Q 604.781 94.102 604.666 94.391 A 2.012 2.012 0 0 1 604.395 94.873 A 23.423 23.423 0 0 1 602.589 96.949 Q 600.861 98.73 598.389 100.684 A 3.62 3.62 0 0 1 597.986 100.936 Q 597.778 101.046 597.585 101.105 A 1.428 1.428 0 0 1 597.168 101.172 Q 596.674 101.172 596.146 100.825 A 3.253 3.253 0 0 1 595.947 100.684 A 48.286 48.286 0 0 1 594.236 99.311 Q 593.218 98.453 592.407 97.656 A 27.77 27.77 0 0 1 590.937 96.1 A 21.597 21.597 0 0 1 589.942 94.873 Q 589.561 94.378 589.477 93.555 A 4.834 4.834 0 0 1 589.453 93.066 L 589.453 32.861 A 4.535 4.535 0 0 1 589.501 32.181 Q 589.555 31.825 589.67 31.537 A 2.012 2.012 0 0 1 589.942 31.055 A 22.246 22.246 0 0 1 591.226 29.501 A 28.593 28.593 0 0 1 592.407 28.271 A 30.622 30.622 0 0 1 593.794 26.995 Q 594.523 26.362 595.37 25.693 A 54.005 54.005 0 0 1 595.947 25.244 A 2.549 2.549 0 0 1 596.492 24.919 A 1.939 1.939 0 0 1 597.266 24.756 A 1.865 1.865 0 0 1 597.933 24.886 Q 598.253 25.008 598.584 25.244 Q 600.499 26.748 601.903 28.125 A 28.32 28.32 0 0 1 602.1 28.32 A 25.079 25.079 0 0 1 604.254 30.765 A 22.537 22.537 0 0 1 604.688 31.348 L 604.932 31.348 A 11.59 11.59 0 0 1 605.536 30.664 Q 606.189 29.977 607.149 29.137 A 39.96 39.96 0 0 1 607.471 28.857 A 10.586 10.586 0 0 1 608.955 27.807 Q 610.361 26.971 612.329 26.27 A 16.737 16.737 0 0 1 614.959 25.586 Q 616.321 25.339 617.922 25.231 A 39.173 39.173 0 0 1 620.557 25.146 A 26.133 26.133 0 0 1 625.646 25.615 Q 628.798 26.241 631.293 27.702 A 15.671 15.671 0 0 1 632.3 28.345 A 18.923 18.923 0 0 1 638.738 36.107 A 23.001 23.001 0 0 1 639.185 37.134 A 30.296 30.296 0 0 1 641.073 44.298 A 40.192 40.192 0 0 1 641.455 49.951 A 39.554 39.554 0 0 1 640.704 57.811 A 31.995 31.995 0 0 1 638.794 64.014 A 23.745 23.745 0 0 1 634.352 70.959 A 21.898 21.898 0 0 1 630.957 73.926 A 19.511 19.511 0 0 1 623.33 77.11 A 27.152 27.152 0 0 1 618.115 77.588 Q 614.16 77.588 611.597 76.685 Q 609.584 75.975 608.203 75.055 A 9.475 9.475 0 0 1 607.495 74.536 A 26.633 26.633 0 0 1 606.455 73.651 Q 605.634 72.915 605.078 72.266 Z M 292.041 70.459 L 297.022 63.086 Q 298.096 61.523 299.463 62.891 A 12.756 12.756 0 0 0 300.779 63.989 Q 301.861 64.783 303.296 65.552 Q 305.401 66.679 308.415 66.824 A 18.932 18.932 0 0 0 309.326 66.846 A 15.543 15.543 0 0 0 311.538 66.698 Q 312.695 66.531 313.655 66.177 A 7.903 7.903 0 0 0 314.624 65.747 A 4.608 4.608 0 0 0 315.717 64.964 A 3.259 3.259 0 0 0 316.699 62.549 A 3.773 3.773 0 0 0 316.537 61.418 A 3.046 3.046 0 0 0 315.772 60.156 A 5.031 5.031 0 0 0 315.096 59.601 Q 314.359 59.086 313.199 58.557 A 22.773 22.773 0 0 0 312.5 58.252 Q 310.706 57.504 307.824 56.442 A 274.998 274.998 0 0 0 305.957 55.762 A 37.396 37.396 0 0 1 302.052 54.108 Q 300.147 53.161 298.654 52.088 A 16.756 16.756 0 0 1 296.582 50.342 Q 293.408 47.168 293.408 41.064 A 16.58 16.58 0 0 1 293.88 37.003 A 11.956 11.956 0 0 1 296.509 31.934 Q 299.609 28.418 304.468 26.782 Q 309.326 25.146 314.6 25.146 Q 321.289 25.146 323.999 26.392 A 47.994 47.994 0 0 1 325.092 26.909 Q 326.693 27.694 327.349 28.205 A 3.133 3.133 0 0 1 327.49 28.32 Q 328.223 28.955 328.516 29.785 Q 329.15 31.689 329.492 34.814 Q 329.635 36.137 329.072 36.805 A 1.657 1.657 0 0 1 328.565 37.207 A 4.372 4.372 0 0 1 328.181 37.403 Q 327.753 37.599 327.117 37.809 A 20.07 20.07 0 0 1 326.709 37.939 Q 325.44 38.33 324.17 38.623 Q 322.9 38.916 322.266 38.916 A 0.716 0.716 0 0 1 322.058 38.884 Q 321.973 38.858 321.884 38.812 A 1.285 1.285 0 0 1 321.851 38.794 Q 321.647 38.681 321.172 38.255 A 17.001 17.001 0 0 1 321.094 38.184 Q 320.566 37.656 319.414 36.993 A 20.835 20.835 0 0 0 318.921 36.719 Q 317.819 36.124 316.126 35.955 A 14.452 14.452 0 0 0 314.697 35.889 Q 312.061 35.889 310.278 36.743 A 3.124 3.124 0 0 0 309.127 37.648 Q 308.496 38.468 308.496 39.746 A 3.769 3.769 0 0 0 308.931 41.573 Q 309.341 42.329 310.139 42.885 A 5.527 5.527 0 0 0 310.767 43.262 A 26.079 26.079 0 0 0 312.087 43.89 Q 313.603 44.567 315.869 45.417 A 144.854 144.854 0 0 0 318.262 46.289 Q 322.297 47.682 325.317 49.335 A 32.885 32.885 0 0 1 325.415 49.39 A 13.252 13.252 0 0 1 328.544 51.747 A 11.648 11.648 0 0 1 330.127 53.784 A 10.136 10.136 0 0 1 331.247 56.46 Q 331.787 58.466 331.787 61.084 A 17.772 17.772 0 0 1 331.331 65.226 A 12.357 12.357 0 0 1 328.54 70.679 A 18.121 18.121 0 0 1 321.625 75.453 A 21.982 21.982 0 0 1 320.239 75.952 Q 315.186 77.588 309.668 77.588 A 51.421 51.421 0 0 1 306.143 77.474 Q 304.491 77.361 303.071 77.133 A 23.306 23.306 0 0 1 301.001 76.709 Q 298.524 76.076 296.754 75.254 A 13.657 13.657 0 0 1 295.483 74.585 A 34.854 34.854 0 0 1 294.164 73.755 Q 293.005 72.987 292.236 72.314 A 1.927 1.927 0 0 1 291.965 72.001 Q 291.511 71.335 291.981 70.554 A 2.406 2.406 0 0 1 292.041 70.459 Z M 337.598 70.459 L 342.578 63.086 Q 343.652 61.523 345.02 62.891 A 12.756 12.756 0 0 0 346.335 63.989 Q 347.418 64.783 348.853 65.552 Q 350.958 66.679 353.971 66.824 A 18.932 18.932 0 0 0 354.883 66.846 A 15.543 15.543 0 0 0 357.095 66.698 Q 358.251 66.531 359.212 66.177 A 7.903 7.903 0 0 0 360.181 65.747 A 4.608 4.608 0 0 0 361.274 64.964 A 3.259 3.259 0 0 0 362.256 62.549 A 3.773 3.773 0 0 0 362.094 61.418 A 3.046 3.046 0 0 0 361.328 60.156 A 5.031 5.031 0 0 0 360.653 59.601 Q 359.916 59.086 358.756 58.557 A 22.773 22.773 0 0 0 358.057 58.252 Q 356.262 57.504 353.38 56.442 A 274.998 274.998 0 0 0 351.514 55.762 A 37.396 37.396 0 0 1 347.608 54.108 Q 345.703 53.161 344.211 52.088 A 16.756 16.756 0 0 1 342.139 50.342 Q 338.965 47.168 338.965 41.064 A 16.58 16.58 0 0 1 339.437 37.003 A 11.956 11.956 0 0 1 342.066 31.934 Q 345.166 28.418 350.025 26.782 Q 354.883 25.146 360.156 25.146 Q 366.846 25.146 369.556 26.392 A 47.994 47.994 0 0 1 370.649 26.909 Q 372.249 27.694 372.906 28.205 A 3.133 3.133 0 0 1 373.047 28.32 Q 373.779 28.955 374.072 29.785 Q 374.707 31.689 375.049 34.814 Q 375.192 36.137 374.628 36.805 A 1.657 1.657 0 0 1 374.121 37.207 A 4.372 4.372 0 0 1 373.738 37.403 Q 373.309 37.599 372.674 37.809 A 20.07 20.07 0 0 1 372.266 37.939 Q 370.996 38.33 369.727 38.623 Q 368.457 38.916 367.822 38.916 A 0.716 0.716 0 0 1 367.614 38.884 Q 367.529 38.858 367.44 38.812 A 1.285 1.285 0 0 1 367.407 38.794 Q 367.204 38.681 366.729 38.255 A 17.001 17.001 0 0 1 366.65 38.184 Q 366.123 37.656 364.97 36.993 A 20.835 20.835 0 0 0 364.478 36.719 Q 363.375 36.124 361.683 35.955 A 14.452 14.452 0 0 0 360.254 35.889 Q 357.617 35.889 355.835 36.743 A 3.124 3.124 0 0 0 354.683 37.648 Q 354.053 38.468 354.053 39.746 A 3.769 3.769 0 0 0 354.487 41.573 Q 354.898 42.329 355.696 42.885 A 5.527 5.527 0 0 0 356.323 43.262 A 26.079 26.079 0 0 0 357.643 43.89 Q 359.159 44.567 361.426 45.417 A 144.854 144.854 0 0 0 363.818 46.289 Q 367.854 47.682 370.873 49.335 A 32.885 32.885 0 0 1 370.972 49.39 A 13.252 13.252 0 0 1 374.101 51.747 A 11.648 11.648 0 0 1 375.684 53.784 A 10.136 10.136 0 0 1 376.804 56.46 Q 377.344 58.466 377.344 61.084 A 17.772 17.772 0 0 1 376.887 65.226 A 12.357 12.357 0 0 1 374.097 70.679 A 18.121 18.121 0 0 1 367.182 75.453 A 21.982 21.982 0 0 1 365.796 75.952 Q 360.742 77.588 355.225 77.588 A 51.421 51.421 0 0 1 351.7 77.474 Q 350.048 77.361 348.627 77.133 A 23.306 23.306 0 0 1 346.558 76.709 Q 344.08 76.076 342.311 75.254 A 13.657 13.657 0 0 1 341.04 74.585 A 34.854 34.854 0 0 1 339.72 73.755 Q 338.562 72.987 337.793 72.314 A 1.927 1.927 0 0 1 337.522 72.001 Q 337.068 71.335 337.538 70.554 A 2.406 2.406 0 0 1 337.598 70.459 Z M 273.34 56.055 L 252.393 56.055 A 13.302 13.302 0 0 0 253.049 59.36 A 9.349 9.349 0 0 0 256.079 63.721 Q 259.375 66.357 265.039 66.357 Q 268.18 66.357 270.449 65.701 A 10.767 10.767 0 0 0 272.241 65.015 A 65.686 65.686 0 0 0 273.494 64.378 Q 275.22 63.477 276.025 62.891 Q 276.953 62.207 278.125 62.256 A 6.649 6.649 0 0 1 278.711 62.285 Q 279.346 62.342 280.225 62.509 A 28.856 28.856 0 0 1 280.786 62.622 Q 282.52 62.988 284.229 63.965 A 2.945 2.945 0 0 1 284.819 64.361 A 1.746 1.746 0 0 1 285.449 65.723 A 4.713 4.713 0 0 1 285.428 66.147 Q 285.389 66.574 285.279 67.158 A 19.601 19.601 0 0 1 285.205 67.529 Q 285.093 68.053 284.866 68.934 A 91.348 91.348 0 0 1 284.717 69.507 A 13.974 13.974 0 0 1 284.033 71.497 A 12.606 12.606 0 0 1 283.838 71.924 Q 283.579 72.399 283.053 72.835 A 4.926 4.926 0 0 1 282.91 72.949 A 12.529 12.529 0 0 1 282.347 73.318 Q 281.693 73.725 280.725 74.248 A 62.222 62.222 0 0 1 279.761 74.756 Q 278.301 75.51 276.125 76.144 A 39.834 39.834 0 0 1 273.828 76.733 A 29.879 29.879 0 0 1 270.744 77.252 Q 267.919 77.588 264.307 77.588 Q 256.345 77.588 250.383 75.111 A 27.082 27.082 0 0 1 249.951 74.927 A 20.165 20.165 0 0 1 240.479 66.65 A 21.888 21.888 0 0 1 238.06 60.667 Q 237.109 56.87 237.109 52.148 Q 237.109 38.818 243.945 31.982 A 22.92 22.92 0 0 1 256.686 25.58 A 32.544 32.544 0 0 1 262.109 25.146 Q 268.662 25.146 273.421 27.229 A 19.989 19.989 0 0 1 274.585 27.783 A 19.388 19.388 0 0 1 279.954 31.8 A 17.754 17.754 0 0 1 282.349 35.059 A 20.115 20.115 0 0 1 284.883 43.111 A 24.886 24.886 0 0 1 285.01 45.654 A 17.777 17.777 0 0 1 284.8 48.493 Q 284.219 52.074 282.031 53.76 A 9.729 9.729 0 0 1 279.064 55.277 Q 277.714 55.715 276.072 55.906 A 23.656 23.656 0 0 1 273.34 56.055 Z M 228.272 64.453 L 231.836 72.51 A 2.567 2.567 0 0 1 231.942 72.807 Q 232.237 73.844 231.25 74.316 A 14.139 14.139 0 0 1 230.2 74.796 Q 228.981 75.3 227.152 75.867 A 75.662 75.662 0 0 1 225.293 76.416 A 27.949 27.949 0 0 1 221.608 77.173 Q 219.771 77.432 217.664 77.53 A 57.043 57.043 0 0 1 215.039 77.588 A 37.453 37.453 0 0 1 206.867 76.746 Q 200.151 75.245 195.459 71.069 A 20.627 20.627 0 0 1 189.438 61.37 Q 188.42 57.989 188.197 53.905 A 43.009 43.009 0 0 1 188.135 51.563 A 34.168 34.168 0 0 1 188.777 44.771 A 24.813 24.813 0 0 1 191.504 37.354 A 22.47 22.47 0 0 1 201.074 28.296 A 28.338 28.338 0 0 1 209.112 25.686 A 38.664 38.664 0 0 1 215.723 25.146 A 57.335 57.335 0 0 1 218.43 25.206 Q 221.138 25.334 222.921 25.74 A 10.653 10.653 0 0 1 224.17 26.099 A 45.179 45.179 0 0 1 225.23 26.495 Q 226.956 27.168 227.49 27.588 Q 228.565 28.271 229.15 29.346 A 3.65 3.65 0 0 1 229.339 29.686 Q 229.523 30.058 229.73 30.624 A 20.406 20.406 0 0 1 229.932 31.201 A 14.039 14.039 0 0 1 230.403 33.037 A 16.987 16.987 0 0 1 230.567 34.082 A 8.972 8.972 0 0 1 230.638 34.485 Q 230.777 35.392 230.615 35.815 A 1.28 1.28 0 0 1 230.443 36.117 Q 230.136 36.531 229.395 37.061 A 16.407 16.407 0 0 1 227.261 38.257 A 18.491 18.491 0 0 1 226.831 38.452 Q 225.503 39.035 224.642 39.284 A 8.061 8.061 0 0 1 224.561 39.307 A 4.964 4.964 0 0 1 224.27 39.375 Q 223.857 39.459 223.577 39.429 A 1.042 1.042 0 0 1 223.438 39.404 A 1.546 1.546 0 0 1 223.195 39.318 Q 222.941 39.207 222.603 38.984 A 8.184 8.184 0 0 1 222.363 38.818 A 9.182 9.182 0 0 0 221.813 38.471 Q 221.184 38.102 220.294 37.682 A 30.195 30.195 0 0 0 220.166 37.622 A 5.964 5.964 0 0 0 219.01 37.233 Q 217.857 36.963 216.266 36.963 A 12.127 12.127 0 0 0 216.26 36.963 Q 213.086 36.963 210.23 38.525 A 11.525 11.525 0 0 0 206.297 42.096 A 14.255 14.255 0 0 0 205.591 43.213 Q 203.809 46.338 203.809 51.025 A 21.596 21.596 0 0 0 204.206 55.298 Q 205.018 59.322 207.495 61.914 A 12.247 12.247 0 0 0 214.614 65.56 A 17.399 17.399 0 0 0 217.383 65.771 Q 220.557 65.771 222.656 65.112 A 28.158 28.158 0 0 0 223.883 64.698 Q 224.51 64.469 225.034 64.237 A 11.361 11.361 0 0 0 225.977 63.77 Q 226.821 63.305 227.318 63.443 A 0.746 0.746 0 0 1 227.466 63.501 A 1.556 1.556 0 0 1 227.979 63.942 Q 228.146 64.159 228.272 64.453 Z M 509.326 64.453 L 512.891 72.51 A 2.567 2.567 0 0 1 512.997 72.807 Q 513.292 73.844 512.305 74.316 A 14.139 14.139 0 0 1 511.255 74.796 Q 510.035 75.3 508.207 75.867 A 75.662 75.662 0 0 1 506.348 76.416 A 27.949 27.949 0 0 1 502.663 77.173 Q 500.826 77.432 498.719 77.53 A 57.043 57.043 0 0 1 496.094 77.588 A 37.453 37.453 0 0 1 487.922 76.746 Q 481.206 75.245 476.514 71.069 A 20.627 20.627 0 0 1 470.493 61.37 Q 469.475 57.989 469.252 53.905 A 43.009 43.009 0 0 1 469.19 51.563 A 34.168 34.168 0 0 1 469.832 44.771 A 24.813 24.813 0 0 1 472.559 37.354 A 22.47 22.47 0 0 1 482.129 28.296 A 28.338 28.338 0 0 1 490.167 25.686 A 38.664 38.664 0 0 1 496.777 25.146 A 57.335 57.335 0 0 1 499.484 25.206 Q 502.193 25.334 503.976 25.74 A 10.653 10.653 0 0 1 505.225 26.099 A 45.179 45.179 0 0 1 506.285 26.495 Q 508.011 27.168 508.545 27.588 Q 509.619 28.271 510.205 29.346 A 3.65 3.65 0 0 1 510.394 29.686 Q 510.577 30.058 510.785 30.624 A 20.406 20.406 0 0 1 510.986 31.201 A 14.039 14.039 0 0 1 511.458 33.037 A 16.987 16.987 0 0 1 511.621 34.082 A 8.972 8.972 0 0 1 511.693 34.485 Q 511.831 35.392 511.67 35.815 A 1.28 1.28 0 0 1 511.498 36.117 Q 511.19 36.531 510.449 37.061 A 16.407 16.407 0 0 1 508.315 38.257 A 18.491 18.491 0 0 1 507.886 38.452 Q 506.558 39.035 505.697 39.284 A 8.061 8.061 0 0 1 505.615 39.307 A 4.964 4.964 0 0 1 505.325 39.375 Q 504.912 39.459 504.632 39.429 A 1.042 1.042 0 0 1 504.492 39.404 A 1.546 1.546 0 0 1 504.249 39.318 Q 503.996 39.207 503.658 38.984 A 8.184 8.184 0 0 1 503.418 38.818 A 9.182 9.182 0 0 0 502.868 38.471 Q 502.239 38.102 501.349 37.682 A 30.195 30.195 0 0 0 501.221 37.622 A 5.964 5.964 0 0 0 500.064 37.233 Q 498.912 36.963 497.321 36.963 A 12.127 12.127 0 0 0 497.315 36.963 Q 494.141 36.963 491.284 38.525 A 11.525 11.525 0 0 0 487.352 42.096 A 14.255 14.255 0 0 0 486.646 43.213 Q 484.863 46.338 484.863 51.025 A 21.596 21.596 0 0 0 485.26 55.298 Q 486.073 59.322 488.55 61.914 A 12.247 12.247 0 0 0 495.669 65.56 A 17.399 17.399 0 0 0 498.438 65.771 Q 501.611 65.771 503.711 65.112 A 28.158 28.158 0 0 0 504.937 64.698 Q 505.565 64.469 506.088 64.237 A 11.361 11.361 0 0 0 507.031 63.77 Q 507.875 63.305 508.373 63.443 A 0.746 0.746 0 0 1 508.521 63.501 A 1.556 1.556 0 0 1 509.034 63.942 Q 509.2 64.159 509.326 64.453 Z M 655.42 60.645 L 655.42 37.744 L 649.902 37.744 A 5.508 5.508 0 0 1 649.207 37.704 Q 648.456 37.608 648.041 37.285 A 1.343 1.343 0 0 1 647.876 37.134 Q 647.364 36.577 647.319 35.309 A 7.074 7.074 0 0 1 647.315 35.059 L 647.315 29.053 A 6.023 6.023 0 0 1 647.354 28.335 Q 647.464 27.426 647.876 26.978 A 1.556 1.556 0 0 1 648.424 26.606 Q 648.91 26.4 649.659 26.372 A 6.493 6.493 0 0 1 649.902 26.367 L 655.42 26.367 L 655.42 18.506 A 4.535 4.535 0 0 1 655.468 17.826 Q 655.522 17.47 655.637 17.182 A 2.012 2.012 0 0 1 655.908 16.699 A 23.423 23.423 0 0 1 657.714 14.623 Q 659.442 12.842 661.914 10.889 A 3.62 3.62 0 0 1 662.317 10.636 Q 662.525 10.526 662.718 10.467 A 1.428 1.428 0 0 1 663.135 10.4 A 1.54 1.54 0 0 1 663.789 10.553 Q 664 10.651 664.21 10.811 A 2.948 2.948 0 0 1 664.307 10.889 A 48.286 48.286 0 0 1 666.018 12.261 Q 667.037 13.12 667.847 13.916 A 27.77 27.77 0 0 1 669.317 15.472 A 21.597 21.597 0 0 1 670.313 16.699 Q 670.694 17.195 670.777 18.017 A 4.834 4.834 0 0 1 670.801 18.506 L 670.801 26.367 L 679.443 26.367 A 5.508 5.508 0 0 1 680.139 26.408 Q 680.89 26.504 681.305 26.827 A 1.343 1.343 0 0 1 681.47 26.978 Q 681.982 27.534 682.027 28.803 A 7.074 7.074 0 0 1 682.031 29.053 L 682.031 35.059 A 6.023 6.023 0 0 1 681.992 35.777 Q 681.882 36.686 681.47 37.134 A 1.556 1.556 0 0 1 680.922 37.506 Q 680.436 37.712 679.687 37.74 A 6.493 6.493 0 0 1 679.443 37.744 L 670.801 37.744 L 670.801 57.959 A 15.872 15.872 0 0 0 671.026 60.762 Q 671.929 65.771 676.465 65.771 A 7.869 7.869 0 0 0 677.407 65.717 A 6.226 6.226 0 0 0 678.076 65.601 Q 678.706 65.454 679.191 65.289 A 7.765 7.765 0 0 0 679.346 65.234 Q 680.281 64.878 680.709 64.928 A 0.687 0.687 0 0 1 680.786 64.941 A 0.553 0.553 0 0 1 681.035 65.085 Q 681.295 65.33 681.523 65.959 A 5.75 5.75 0 0 1 681.543 66.016 L 684.375 73.584 A 2.502 2.502 0 0 1 684.46 73.871 Q 684.65 74.696 684.069 75.161 A 1.729 1.729 0 0 1 683.789 75.342 Q 683.079 75.673 680.418 76.579 A 191.658 191.658 0 0 1 680.249 76.636 A 13.658 13.658 0 0 1 678.326 77.117 Q 676.32 77.483 673.446 77.565 A 60.683 60.683 0 0 1 671.729 77.588 Q 655.42 77.588 655.42 60.645 Z M 76.123 32.031 L 76.123 35.645 L 76.318 35.645 A 19.751 19.751 0 0 1 78.758 30.851 Q 82.463 25.656 89.073 25.494 A 17.485 17.485 0 0 1 89.502 25.488 A 20.147 20.147 0 0 1 90.289 25.503 Q 90.991 25.53 91.504 25.61 A 19.314 19.314 0 0 1 91.854 25.668 Q 92.356 25.756 92.578 25.83 Q 93.311 26.074 93.311 26.953 L 93.311 38.721 Q 93.311 40.19 91.655 39.589 A 4.762 4.762 0 0 1 91.553 39.551 A 6.433 6.433 0 0 0 91.142 39.398 Q 90.628 39.224 89.868 39.038 Q 88.77 38.77 86.817 38.77 A 10.973 10.973 0 0 0 83.255 39.321 A 9.009 9.009 0 0 0 78.955 42.456 A 12.72 12.72 0 0 0 76.842 46.769 Q 76.348 48.503 76.193 50.557 A 25.782 25.782 0 0 0 76.123 52.49 L 76.123 73.779 A 5.508 5.508 0 0 1 76.083 74.475 Q 75.987 75.226 75.664 75.641 A 1.343 1.343 0 0 1 75.513 75.806 Q 74.956 76.318 73.688 76.363 A 7.074 7.074 0 0 1 73.438 76.367 L 63.379 76.367 A 6.023 6.023 0 0 1 62.661 76.328 Q 61.752 76.218 61.304 75.806 A 1.556 1.556 0 0 1 60.932 75.257 Q 60.726 74.772 60.698 74.023 A 6.493 6.493 0 0 1 60.693 73.779 L 60.693 32.861 A 4.535 4.535 0 0 1 60.741 32.181 Q 60.795 31.825 60.911 31.537 A 2.012 2.012 0 0 1 61.182 31.055 A 22.246 22.246 0 0 1 62.467 29.501 A 28.593 28.593 0 0 1 63.648 28.271 A 30.622 30.622 0 0 1 65.034 26.995 Q 65.763 26.362 66.61 25.693 A 54.005 54.005 0 0 1 67.188 25.244 A 2.592 2.592 0 0 1 67.554 25.012 A 1.924 1.924 0 0 1 67.969 24.854 A 3.855 3.855 0 0 1 68.248 24.794 Q 68.393 24.769 68.522 24.76 A 1.957 1.957 0 0 1 68.652 24.756 A 2.073 2.073 0 0 1 69.486 24.937 A 2.942 2.942 0 0 1 70.02 25.244 A 55.322 55.322 0 0 1 72.106 26.956 Q 74.526 29.05 75.684 30.664 A 2.198 2.198 0 0 1 76.122 31.946 A 2.722 2.722 0 0 1 76.123 32.031 Z M 536.279 32.031 L 536.279 35.645 L 536.475 35.645 A 19.751 19.751 0 0 1 538.914 30.851 Q 542.62 25.656 549.229 25.494 A 17.485 17.485 0 0 1 549.658 25.488 A 20.147 20.147 0 0 1 550.446 25.503 Q 551.148 25.53 551.66 25.61 A 19.314 19.314 0 0 1 552.01 25.668 Q 552.512 25.756 552.734 25.83 Q 553.467 26.074 553.467 26.953 L 553.467 38.721 Q 553.467 40.19 551.811 39.589 A 4.762 4.762 0 0 1 551.709 39.551 A 6.433 6.433 0 0 0 551.299 39.398 Q 550.784 39.224 550.025 39.038 Q 548.926 38.77 546.973 38.77 A 10.973 10.973 0 0 0 543.412 39.321 A 9.009 9.009 0 0 0 539.111 42.456 A 12.72 12.72 0 0 0 536.999 46.769 Q 536.504 48.503 536.35 50.557 A 25.782 25.782 0 0 0 536.279 52.49 L 536.279 73.779 A 5.508 5.508 0 0 1 536.239 74.475 Q 536.143 75.226 535.82 75.641 A 1.343 1.343 0 0 1 535.669 75.806 Q 535.112 76.318 533.844 76.363 A 7.074 7.074 0 0 1 533.594 76.367 L 523.535 76.367 A 6.023 6.023 0 0 1 522.817 76.328 Q 521.908 76.218 521.46 75.806 A 1.556 1.556 0 0 1 521.088 75.257 Q 520.882 74.772 520.854 74.023 A 6.493 6.493 0 0 1 520.85 73.779 L 520.85 32.861 A 4.535 4.535 0 0 1 520.897 32.181 Q 520.951 31.825 521.067 31.537 A 2.012 2.012 0 0 1 521.338 31.055 A 22.246 22.246 0 0 1 522.623 29.501 A 28.593 28.593 0 0 1 523.804 28.271 A 30.622 30.622 0 0 1 525.19 26.995 Q 525.92 26.362 526.766 25.693 A 54.005 54.005 0 0 1 527.344 25.244 A 2.592 2.592 0 0 1 527.71 25.012 A 1.924 1.924 0 0 1 528.125 24.854 A 3.855 3.855 0 0 1 528.404 24.794 Q 528.55 24.769 528.678 24.76 A 1.957 1.957 0 0 1 528.809 24.756 A 2.073 2.073 0 0 1 529.642 24.937 A 2.942 2.942 0 0 1 530.176 25.244 A 55.322 55.322 0 0 1 532.262 26.956 Q 534.682 29.05 535.84 30.664 A 2.198 2.198 0 0 1 536.278 31.946 A 2.722 2.722 0 0 1 536.279 32.031 Z M 116.016 28.955 L 116.016 73.779 A 5.508 5.508 0 0 1 115.975 74.475 Q 115.879 75.226 115.556 75.641 A 1.343 1.343 0 0 1 115.405 75.806 Q 114.848 76.318 113.58 76.363 A 7.074 7.074 0 0 1 113.33 76.367 L 103.272 76.367 A 6.023 6.023 0 0 1 102.554 76.328 Q 101.645 76.218 101.196 75.806 A 1.556 1.556 0 0 1 100.824 75.257 Q 100.619 74.772 100.59 74.023 A 6.493 6.493 0 0 1 100.586 73.779 L 100.586 28.955 A 5.508 5.508 0 0 1 100.627 28.26 Q 100.723 27.509 101.045 27.093 A 1.343 1.343 0 0 1 101.196 26.929 Q 101.753 26.416 103.022 26.371 A 7.074 7.074 0 0 1 103.272 26.367 L 113.33 26.367 A 6.023 6.023 0 0 1 114.048 26.407 Q 114.957 26.516 115.405 26.929 A 1.556 1.556 0 0 1 115.777 27.477 Q 115.983 27.963 116.011 28.711 A 6.493 6.493 0 0 1 116.016 28.955 Z M 576.172 28.955 L 576.172 73.779 A 5.508 5.508 0 0 1 576.131 74.475 Q 576.035 75.226 575.713 75.641 A 1.343 1.343 0 0 1 575.562 75.806 Q 575.005 76.318 573.736 76.363 A 7.074 7.074 0 0 1 573.486 76.367 L 563.428 76.367 A 6.023 6.023 0 0 1 562.71 76.328 Q 561.801 76.218 561.353 75.806 A 1.556 1.556 0 0 1 560.981 75.257 Q 560.775 74.772 560.747 74.023 A 6.493 6.493 0 0 1 560.742 73.779 L 560.742 28.955 A 5.508 5.508 0 0 1 560.783 28.26 Q 560.879 27.509 561.202 27.093 A 1.343 1.343 0 0 1 561.353 26.929 Q 561.91 26.416 563.178 26.371 A 7.074 7.074 0 0 1 563.428 26.367 L 573.486 26.367 A 6.023 6.023 0 0 1 574.204 26.407 Q 575.113 26.516 575.562 26.929 A 1.556 1.556 0 0 1 575.934 27.477 Q 576.139 27.963 576.168 28.711 A 6.493 6.493 0 0 1 576.172 28.955 Z M 604.883 43.457 L 604.883 54.053 A 15.156 15.156 0 0 0 605.315 57.763 A 11.353 11.353 0 0 0 607.324 61.963 A 7.893 7.893 0 0 0 612.305 64.938 A 12.094 12.094 0 0 0 614.551 65.137 A 12.051 12.051 0 0 0 618.104 64.64 A 9.219 9.219 0 0 0 622.73 61.45 A 12.072 12.072 0 0 0 624.703 57.634 Q 625.256 55.913 625.481 53.82 A 28.494 28.494 0 0 0 625.635 50.781 A 23.418 23.418 0 0 0 625.17 45.887 Q 623.636 38.742 617.039 37.756 A 15.178 15.178 0 0 0 614.795 37.598 A 17.935 17.935 0 0 0 612.402 37.746 Q 609.587 38.126 608.008 39.478 A 14.137 14.137 0 0 0 606.38 41.103 Q 605.539 42.101 605.024 43.155 A 8.561 8.561 0 0 0 604.883 43.457 Z M 98.34 9.961 Q 98.34 9.326 98.731 8.838 A 127.644 127.644 0 0 1 98.941 8.575 Q 99.28 8.154 99.756 7.568 A 45.807 45.807 0 0 1 101.233 5.963 A 60.65 60.65 0 0 1 102.93 4.272 A 99.955 99.955 0 0 1 106.592 0.928 A 9.698 9.698 0 0 1 107.077 0.566 Q 107.842 0.035 108.292 0.002 A 0.797 0.797 0 0 1 108.35 0 A 1.157 1.157 0 0 1 108.7 0.064 Q 109.255 0.243 110.156 0.928 A 76.201 76.201 0 0 1 113.818 4.297 A 56.004 56.004 0 0 1 116.895 7.568 A 75.054 75.054 0 0 1 117.198 7.921 Q 117.632 8.428 117.943 8.812 A 5.069 5.069 0 0 1 117.944 8.813 Q 118.359 9.326 118.359 9.961 A 1.684 1.684 0 0 1 117.944 11.084 A 62.504 62.504 0 0 0 117.72 11.349 Q 117.472 11.645 117.151 12.032 A 200.29 200.29 0 0 0 116.846 12.402 A 50.817 50.817 0 0 1 115.418 13.971 A 69.282 69.282 0 0 1 113.77 15.649 Q 112.012 17.383 110.156 18.945 A 10.525 10.525 0 0 1 109.833 19.212 Q 109.375 19.574 109.082 19.702 A 2.238 2.238 0 0 1 108.75 19.819 Q 108.555 19.87 108.374 19.873 A 1.378 1.378 0 0 1 108.35 19.873 A 1.52 1.52 0 0 1 107.913 19.806 A 1.992 1.992 0 0 1 107.642 19.702 A 2.61 2.61 0 0 1 107.433 19.591 Q 107.088 19.389 106.52 18.965 A 22.367 22.367 0 0 1 106.494 18.945 Q 104.541 17.383 102.832 15.649 A 66.318 66.318 0 0 1 100.876 13.582 A 53.591 53.591 0 0 1 99.756 12.305 A 163.065 163.065 0 0 0 99.454 11.934 Q 99.158 11.572 98.927 11.294 A 51.92 51.92 0 0 0 98.731 11.06 Q 98.34 10.596 98.34 9.961 Z M 558.496 9.961 Q 558.496 9.326 558.887 8.838 A 127.644 127.644 0 0 1 559.097 8.575 Q 559.436 8.154 559.912 7.568 A 45.807 45.807 0 0 1 561.389 5.963 A 60.65 60.65 0 0 1 563.086 4.272 A 99.955 99.955 0 0 1 566.748 0.928 A 9.698 9.698 0 0 1 567.233 0.566 Q 567.998 0.035 568.448 0.002 A 0.797 0.797 0 0 1 568.506 0 A 1.157 1.157 0 0 1 568.856 0.064 Q 569.411 0.243 570.313 0.928 A 76.201 76.201 0 0 1 573.975 4.297 A 56.004 56.004 0 0 1 577.051 7.568 A 75.054 75.054 0 0 1 577.355 7.921 Q 577.789 8.428 578.099 8.812 A 5.069 5.069 0 0 1 578.101 8.813 Q 578.516 9.326 578.516 9.961 A 1.684 1.684 0 0 1 578.101 11.084 A 62.504 62.504 0 0 0 577.876 11.349 Q 577.628 11.645 577.308 12.032 A 200.29 200.29 0 0 0 577.002 12.402 A 50.817 50.817 0 0 1 575.574 13.971 A 69.282 69.282 0 0 1 573.926 15.649 Q 572.168 17.383 570.313 18.945 A 10.525 10.525 0 0 1 569.989 19.212 Q 569.531 19.574 569.238 19.702 A 2.238 2.238 0 0 1 568.906 19.819 Q 568.711 19.87 568.53 19.873 A 1.378 1.378 0 0 1 568.506 19.873 A 1.52 1.52 0 0 1 568.069 19.806 A 1.992 1.992 0 0 1 567.798 19.702 A 2.61 2.61 0 0 1 567.589 19.591 Q 567.244 19.389 566.676 18.965 A 22.367 22.367 0 0 1 566.65 18.945 Q 564.697 17.383 562.988 15.649 A 66.318 66.318 0 0 1 561.032 13.582 A 53.591 53.591 0 0 1 559.912 12.305 A 163.065 163.065 0 0 0 559.61 11.934 Q 559.314 11.572 559.083 11.294 A 51.92 51.92 0 0 0 558.887 11.06 Q 558.496 10.596 558.496 9.961 Z M 252.295 46.045 L 268.213 46.045 Q 270.703 46.045 270.703 43.75 A 9.134 9.134 0 0 0 270.202 40.672 A 8.014 8.014 0 0 0 268.53 37.915 A 6.854 6.854 0 0 0 265.451 36.016 Q 264.335 35.668 262.981 35.578 A 14.639 14.639 0 0 0 262.012 35.547 A 11.672 11.672 0 0 0 259.313 35.839 Q 257.395 36.295 256.069 37.462 A 6.962 6.962 0 0 0 255.054 38.574 Q 252.832 41.602 252.295 46.045 Z" vector-effect="non-scaling-stroke"/></g></svg>